<?xml version="1.0" encoding="UTF-8" standalone="no"?>
<svg
   version="1.2"
   viewBox="0 0 1024 1024"
   width="1024"
   height="1024"
   id="svg1"
   xml:space="preserve"
   xmlns="http://www.w3.org/2000/svg"
   xmlns:svg="http://www.w3.org/2000/svg"><defs
     id="defs1" /><title
     id="title1">ChatGPT Image Jun 6, 2025, 09_36_40 PM</title><style
     id="style1">
		.s0 { fill: #171818 } 
		.s1 { opacity: 1;fill: #7f5b4f } 
		.s2 { fill: #e77965 } 
		.s3 { opacity: 1;fill: #e3b88d } 
		.s4 { fill: #1a1c1e } 
		.s5 { fill: #f08b48 } 
		.s6 { fill: #fcfbec } 
	</style><g
     id="Background"><path
       id="Path 2"
       class="s2"
       d="m 224.99259,24.159476 c -2.5,0.1 -10.3,0.8 -17.5,1.4 -7.2,0.6 -17.9,2 -24,3 -6.1,1 -15.1,3 -20,4.3 -4.9,1.4 -12.8,4 -17.5,5.7 -4.7,1.8 -12.6,5.4 -17.5,7.9 -5,2.6 -13,7.4 -18,10.7 -5,3.3 -13.000002,9.4 -18.000002,13.5 -5,4.1 -11.9,10.6 -15.5,14.4 -3.6,3.8 -9,10.3 -12.1,14.4 -3.1,4.100004 -7.3,10.200004 -9.4,13.500004 -2.1,3.3 -6,10.3 -8.6,15.5 -2.6,5.2 -6.3,13.6 -8.2,18.5 -2,4.9 -4.7,13.5 -6.2,19 -1.4,5.5 -3.5,15.6 -4.5,22.5 -1.1,6.9 -2.5,23.1 -3.1,36 -0.7,15.6 -0.9,117.6 -0.6,302 0.2,211.7 0.6,281.1 1.5,289.5 0.7,6 2.4,17.1 3.8,24.5 1.4,7.4 4.1,18 5.9,23.5 1.8,5.5 5.6,15 8.4,21 2.9,6 6.9,13.7 8.8,17 2,3.3 6.7,10.3 10.4,15.5 3.6,5.2 10.6,13.7 15.5,18.9 4.9,5.2 12.3,12.2 16.4,15.5 4.1,3.4 9.700002,7.8 12.500002,9.7 2.7,1.9 7.7,5.1 11,7.1 3.3,1.9 8,4.7 10.5,6 2.5,1.4 8.1,4.1 12.5,6 4.4,2 12.9,5.2 19,7.2 6.1,2 16.4,4.7 23,6 6.6,1.4 16.4,3 21.8,3.5 5.3,0.6 20.4,1.5 33.4,2.1 14.4,0.60002 125,0.90002 279.3,0.90002 140.5,-0.1 264,-0.50002 274.5,-1.00002 10.5,-0.4 25.5,-1.8 33.5,-2.9 8,-1.2 19.5,-3.4 25.5,-5 6,-1.5 15.5,-4.5 21,-6.5 5.5,-2.1 13.4,-5.4 17.5,-7.5 4.1,-2.1 11.3,-6.1 16,-9 4.7,-2.9 12.3,-8.2 17,-11.9 4.6,-3.6 11.1,-9.1 14.4,-12.1 3.3,-3 9.3,-9.3 13.4,-14 4.1,-4.7 10.7,-13.5 14.7,-19.5 4.1,-6 9.9,-16.2 13.1,-22.5 3.1,-6.3 7.4,-16.7 9.5,-23 2.1,-6.3 4.5,-14.9 5.4,-19 0.9,-4.1 2.2,-11.8 3,-17 0.8,-5.2 1.9,-18.5 2.5,-29.5 0.8,-14 1,-106.2 0.8,-305 -0.4,-261.3 -0.5,-286 -2.1,-297.3 -0.9,-6.7 -2.9,-17.5 -4.3,-23.9 -1.5,-6.5 -4.2,-16.3 -6.1,-21.8 -1.9,-5.5 -5.6,-14.5 -8.2,-20 -2.6,-5.5 -7.2,-13.8 -10.2,-18.5 -2.9,-4.7 -8.8,-12.5 -12.9,-17.500004 -4.2,-4.9 -11,-12.2 -15,-16.2 -4.1,-4 -10.6,-9.7 -14.5,-12.8 -3.9,-3.1 -11,-8.1 -16,-11.2 -5,-3.1 -14,-8 -20,-10.9 -6,-2.9 -15.7,-6.8 -21.5,-8.7 -5.8,-1.9 -16.4,-4.7 -23.5,-6.1 -7.1,-1.4 -16.6,-3 -21,-3.6 -4.4,-0.5 -15.6,-1.4 -25,-2 -10.8,-0.6 -118.4,-0.9 -293.5,-0.8 -152.1,0.1 -278.5,0.3 -281,0.5 z"
       style="fill:#e77a65;fill-opacity:1;stroke:#1a1c1e;stroke-width:30;stroke-linecap:round;stroke-linejoin:round;stroke-dasharray:none;stroke-opacity:1" /><g
       id="g1"><g
         id="g3"
         transform="matrix(1.2635719,0,0,1.2635719,-141.2288,29.17788)"><path
           id="Path 4"
           class="s4"
           d="m 274.1,162.8 c -1.9,0.3 -6.9,1.2 -11,2 -4.2,0.8 -10.8,2.8 -14.6,4.3 -3.9,1.6 -9.4,4.4 -12.4,6.2 -2.9,1.7 -8.5,6.1 -12.4,9.7 -3.8,3.6 -9.2,9.6 -11.9,13.5 -2.7,3.8 -6.2,10.1 -7.8,14 -1.6,3.8 -3.6,10.1 -4.6,14 -1.4,6.1 -1.7,16.1 -2.1,79.5 -0.3,47.1 -0.1,77.9 0.6,88 0.6,8.5 1.8,18.2 2.7,21.5 0.9,3.3 3.1,9.4 5.1,13.5 1.9,4.1 5.4,10.2 7.7,13.5 2.4,3.3 6.8,8.3 9.7,11 3,2.8 7.6,6.6 10.4,8.5 2.7,1.9 8.1,4.8 12,6.6 3.8,1.8 9.7,3.9 13,4.8 3.3,0.9 9.5,1.9 13.7,2.3 l 7.7,0.8 c 0.6,45.7 0.8,48.4 2.6,52.5 1.2,2.5 4.1,6.4 6.5,8.8 2.8,2.7 6.4,4.9 9.5,5.9 3.3,1 7.2,1.4 11.5,1.1 4.8,-0.3 7.9,-1.2 11.7,-3.4 2.8,-1.6 20.2,-16 38.5,-32.1 18.3,-16 34.5,-30.1 36,-31.2 2.8,-2.1 3.2,-2.1 77.3,-2.1 H 548 v 112.5 c 3.5,7 6.1,10 8,11.3 2.1,1.3 5,2.2 7.2,2.2 2.1,0 5,-0.5 6.5,-1.1 1.6,-0.6 15.4,-9.3 30.8,-19.2 15.3,-10 38.7,-25.2 51.8,-33.7 l 24,-15.5 c 37.4,-67.4 58.4,-105 70.7,-127 12.2,-22 29.5,-53.1 38.3,-69 8.8,-15.9 22.7,-41.4 30.9,-56.5 8.2,-15.1 15.7,-29.9 16.8,-32.8 1.1,-2.8 2.5,-8.2 3.1,-12 0.9,-5 0.9,-8.1 0,-12.5 -0.6,-3.1 -2.3,-8.3 -3.9,-11.5 -1.7,-3.7 -5.5,-8.6 -10.7,-13.8 -4.4,-4.4 -10.9,-9.9 -14.5,-12.3 -3.6,-2.3 -11.9,-6.9 -18.5,-10.1 -6.6,-3.2 -15.6,-6.9 -20,-8.4 -4.4,-1.4 -11.4,-3.1 -15.5,-3.7 -4.1,-0.6 -10.4,-0.9 -14,-0.5 -3.9,0.4 -8.9,1.7 -12.5,3.4 -3.3,1.5 -8.2,4.8 -10.8,7.2 -2.7,2.5 -6.4,6.7 -8.1,9.5 -1.8,2.7 -8.5,14.2 -14.8,25.5 -6.4,11.3 -17.8,32 -25.5,46 -7.7,14 -15.7,28.8 -17.9,32.8 l -3.9,7.4 -1,-67.7 c -4.7,-13.2 -8.1,-20.4 -10.7,-24.5 -2.5,-4.1 -7.7,-10.6 -11.4,-14.4 -3.8,-3.8 -9.6,-8.7 -12.9,-10.9 -3.3,-2.3 -8.9,-5.4 -12.5,-7 -3.6,-1.6 -9.9,-3.9 -14,-5.1 -7.5,-2.1 -7.7,-2.1 -156.5,-2.2 -82,-0.1 -150.5,0.1 -152.4,0.4 z"
           style="stroke-width:25;stroke-dasharray:none" /><path
           id="Path 7"
           class="s1"
           d="m 701.2,241 c -2.9,4.8 -3.8,7.1 -3,7.5 0.7,0.2 3.3,0.9 5.8,1.6 2.5,0.6 9,2.9 14.5,5.1 5.5,2.2 14.7,6.4 20.5,9.5 5.8,3 14.5,8.3 19.4,11.7 4.9,3.3 12.3,9.2 16.5,13.1 4.1,3.9 7.2,6.4 6.8,5.8 -0.4,-0.7 -0.4,-1.3 0,-1.3 0.5,0.1 2.1,-2.4 3.8,-5.5 l 3,-5.7 c -7,-6.1 -11.5,-9.9 -14.5,-12.3 -3,-2.3 -10.5,-7.3 -16.5,-11 -6,-3.7 -16,-9.1 -22,-12 -6,-2.9 -15.1,-7.2 -20,-9.4 -5,-2.3 -9.3,-4.1 -9.6,-4.1 -0.3,0 -2.4,3.2 -4.7,7 z M 302.4,495.5 c 0,12.6 0.2,17.6 0.3,11 0.2,-6.6 0.2,-16.9 0,-23 -0.1,-6.1 -0.3,-0.6 -0.3,12 z"
           style="fill:#7e848b;fill-opacity:1;stroke-width:25;stroke-dasharray:none" /><path
           id="Path 8"
           class="s3"
           d="m 570.2,481.9 c -0.3,0.2 -0.5,13.5 -0.4,29.5 l 0.2,29.1 c 7.4,1 11.3,2.2 13.5,3.3 2.2,1.1 5.9,4 8.2,6.6 2.4,2.5 4.3,5.1 4.3,5.6 0,0.5 0.3,1 0.7,1 0.5,0.1 5.1,-2.7 10.3,-6.1 5.2,-3.5 17,-11 26.1,-16.8 l 16.6,-10.6 c -8.3,-12.4 -10.8,-16.3 -11,-16.8 -0.1,-0.4 -2.5,-0.3 -5.2,0.2 -3.1,0.6 -6.9,0.6 -10,0 -2.8,-0.5 -7,-2.2 -9.4,-3.7 -2.5,-1.5 -6,-4.7 -7.9,-7.2 -1.9,-2.5 -3.9,-6.4 -4.5,-8.8 -1.1,-3.7 -1.5,-4.2 -4.2,-4.3 -1.7,0 -8.3,-0.4 -14.8,-0.7 -6.5,-0.4 -12.1,-0.5 -12.5,-0.3 z"
           style="display:inline;stroke-width:25;stroke-dasharray:none" /><path
           id="Path 9"
           class="s0"
           d="m 301.3,184 c -8.3,0.3 -15.5,0.8 -15.9,1.3 -0.4,0.4 62,0.7 138.7,0.7 110.1,-0.1 139,-0.3 137.4,-1.3 -1.5,-0.9 -29.7,-1.2 -123.5,-1.2 -66.8,0 -128.3,0.2 -136.7,0.5 z M 213,269.5 V 290 h -8 v 69 h 8 c 0.4,23.6 0.7,-1.1 0.8,-39.8 0.1,-38.6 0,-70.2 -0.3,-70.2 -0.3,0 -0.5,9.2 -0.5,20.5 z m 6.6,-4.8 c -0.4,8.7 -1.1,23.4 -1.6,32.8 -0.6,9.4 -0.8,31.4 -0.6,49 0.3,17.6 1,35.4 1.6,39.5 0.6,4.1 1.3,7.7 1.6,8 0.2,0.3 0.4,-32.2 0.4,-72.3 0,-40 -0.2,-72.7 -0.4,-72.7 -0.2,0 -0.7,7.1 -1,15.8 z m 402.5,36.2 c 0.1,15 0.5,22.6 0.9,19.5 0.4,-2.8 0.5,-13.6 0.3,-24 -0.3,-10.4 -0.7,-19.2 -0.9,-19.5 -0.3,-0.3 -0.4,10.5 -0.3,24 z"
           style="stroke-width:25;stroke-dasharray:none" /><path
           id="Path 10"
           class="s2"
           d="m 736.5,186.5 c -2.2,0.8 -4.8,2.3 -5.8,3.3 -1,0.9 -4.5,6.8 -7.8,12.9 -3.2,6.2 -5.8,11.5 -5.7,11.7 0.2,0.2 3.4,1.6 7.3,3.1 3.9,1.5 13.5,6 21.5,10 8,3.9 18.8,9.8 24,12.9 5.2,3.2 12.4,7.9 16,10.4 3.6,2.6 8.1,6.1 10,7.9 1.9,1.8 3.8,3.2 4.3,3.3 0.4,0 3.7,-6 7.3,-13.3 5.6,-11 6.7,-14 6.6,-18.2 0,-2.8 -0.7,-6.5 -1.6,-8.3 -0.9,-1.7 -3.5,-5.3 -5.8,-7.8 -2.4,-2.6 -7,-6.6 -10.3,-8.9 -3.3,-2.4 -10.5,-6.6 -16,-9.3 -5.5,-2.8 -13.6,-6.3 -18,-7.7 -4.4,-1.5 -11.1,-2.9 -15,-3.1 -4.8,-0.3 -8.3,0 -11,1.1 z"
           style="fill:#e57569;fill-opacity:1;stroke-width:25;stroke-dasharray:none" /><path
           id="Path 11"
           class="s5"
           d="m 658.8,318.2 c -15.2,27.1 -34.6,61.7 -43.1,76.8 -8.5,15.1 -20,35.8 -25.5,46 -5.6,10.2 -10.1,18.6 -9.9,18.6 0.1,0.1 5.8,0.6 12.7,1.2 6.9,0.6 12.6,1 12.6,0.9 0.1,-0.1 8.9,-15.5 19.6,-34.2 10.7,-18.7 24.4,-42.8 30.5,-53.5 6.1,-10.7 15.3,-27.1 20.5,-36.5 5.2,-9.4 14.9,-26.8 21.6,-38.7 6.7,-12 12.1,-22 12,-22.2 -0.2,-0.2 -4.6,-1.7 -9.8,-3.4 -5.2,-1.6 -10.4,-3.2 -11.6,-3.6 -1.8,-0.5 -4.9,4.5 -29.6,48.6 z m 50.4,-12.4 c -7.1,12.5 -20.5,36.2 -29.7,52.7 -9.2,16.5 -22.6,40.4 -29.8,53 -7.2,12.6 -17.5,30.8 -22.9,40.3 L 617,469 c 2.4,8.7 3.9,11.5 5.9,13.3 1.9,1.6 4.8,2.9 7.4,3.3 2.8,0.4 5.2,0.1 7.2,-0.9 1.7,-0.8 3.7,-2.3 4.5,-3.2 0.8,-1 4.2,-6.8 7.6,-12.9 3.3,-6.1 9.9,-18.1 14.6,-26.6 4.7,-8.5 13.9,-25.2 20.5,-37 6.6,-11.8 16.9,-30.3 22.8,-41 5.9,-10.7 16.9,-30.3 24.3,-43.5 l 13.5,-24 c -4.5,-3.4 -9.4,-6.5 -13.8,-9 -4.4,-2.4 -8.3,-4.5 -8.7,-4.5 -0.3,0 -6.5,10.2 -13.6,22.8 z m 39.5,12.4 c -4.6,7.9 -13.3,23.3 -19.2,34.3 -6,11 -17.2,31.3 -25,45 -7.8,13.8 -22.3,39.6 -32.3,57.5 -10,17.9 -18.1,32.8 -18.2,33.3 0,0.4 2.3,4.3 5,8.7 2.8,4.4 5.5,8 6,8 0.5,0 2.5,-2.8 4.3,-6.2 1.8,-3.5 9.6,-17.8 17.3,-31.8 7.7,-14 17.7,-31.8 22.1,-39.5 4.4,-7.7 12.7,-22.3 18.5,-32.5 5.8,-10.2 16.7,-30 24.3,-44 7.6,-14 15.1,-27.5 16.6,-30 l 2.7,-4.5 -13.6,-12.6 z"
           style="fill:#ee992f;fill-opacity:1;stroke-width:25;stroke-dasharray:none" /><path
           id="Path 12"
           class="s6"
           d="m 267,187.6 c -3.6,0.8 -9.8,3 -13.8,4.9 -4.6,2.2 -9.6,5.8 -13.9,9.9 -3.8,3.5 -8.4,9 -10.3,12.3 -1.9,3.2 -4.4,8.3 -5.5,11.3 -1.9,5.3 -2,8.5 -2.3,89 -0.2,54.6 0.1,85.9 0.8,90.5 0.6,4.5 2.5,10 5.2,15.5 3,6.3 5.8,10.2 10.7,15 3.6,3.6 9.3,7.9 12.6,9.7 3.3,1.7 8.5,3.8 11.5,4.7 3,0.9 10,1.9 15.5,2.3 5.5,0.3 11.3,1.2 13,2.1 1.6,0.8 4.1,2.4 5.3,3.6 1.3,1.1 3.4,3.9 4.5,6.1 2,3.7 2.2,5.8 2.7,29.8 0.5,24.4 0.6,25.9 2.5,27.3 1.1,0.8 2.8,1.3 3.7,1.2 0.9,-0.2 15.5,-12.4 32.3,-27.3 16.9,-14.9 33.5,-29.4 36.8,-32.4 3.4,-2.9 8.2,-6.3 10.7,-7.5 4.5,-2.1 5.1,-2.1 86.3,-2.3 L 557,453 c 4,-7.4 18.6,-33.7 35.1,-63.3 L 622,336 c -0.6,-99.4 -0.8,-105 -2.4,-110 -1,-3 -3.2,-8 -4.9,-11 -1.8,-3 -5.4,-7.9 -8.2,-10.9 -2.7,-2.9 -7.9,-7.1 -11.5,-9.1 -3.6,-2.1 -9.6,-4.9 -13.5,-6.2 l -7,-2.3 c -278.6,-0.3 -302,-0.1 -307.5,1.1 z"
           style="stroke-width:25;stroke-dasharray:none" /><path
           id="Path 13"
           class="s1"
           d="m 369,295.7 c 5.8,0.2 15.7,0.2 22,0 6.3,-0.1 1.6,-0.3 -10.5,-0.3 -12.1,0 -17.3,0.2 -11.5,0.3 z m -24,76 c 26.7,0.2 70.8,0.2 98,0 27.2,-0.1 5.4,-0.2 -48.5,-0.2 -53.9,0 -76.2,0.1 -49.5,0.2 z"
           style="stroke-width:25;stroke-dasharray:none" /><path
           id="Path 14"
           class="s3"
           d="m 405.5,260.7 c 25.3,0.2 66.9,0.2 92.5,0 25.6,-0.1 4.9,-0.2 -46,-0.2 -50.9,0 -71.8,0.1 -46.5,0.2 z m 32.5,35 c 20.1,0.2 52.5,0.2 72,0 19.5,-0.1 3.1,-0.2 -36.5,-0.2 -39.6,0 -55.6,0.1 -35.5,0.2 z m -92.5,41 c 27.5,0.2 72.1,0.2 99,0 26.9,-0.1 4.5,-0.2 -50,-0.2 -54.5,0 -76.5,0.1 -49,0.2 z"
           style="stroke-width:25;stroke-dasharray:none" /><path
           id="Path 15"
           class="s0"
           d="m 497.5,340.4 q 4,2.4 6,6.7 c 1.1,2.6 1.9,6.1 1.7,8.4 -0.1,2.2 -1,5.4 -2,7 -1,1.6 -3.4,4 -5.3,5.3 -1.9,1.2 -2.8,2.2 -2,2.2 0.7,0 3,-1.7 5.1,-3.7 2.3,-2.3 4.3,-5.6 5,-8.3 1.1,-3.7 1.1,-5.3 0,-8.5 -0.7,-2.2 -2.9,-5.7 -4.9,-7.7 -2,-2 -4.5,-3.7 -5.6,-3.7 -1.4,-0.1 -0.8,0.6 2,2.3 z m -213.9,8.1 c -0.3,0.8 -0.6,3.3 -0.6,5.5 0,2.2 0.8,5.7 1.8,7.7 0.9,2 3.1,4.7 4.7,5.9 1.6,1.3 4.6,2.6 6.5,3.1 2.2,0.4 3.3,0.3 2.9,-0.2 -0.4,-0.6 -2.2,-1.3 -4,-1.7 -1.9,-0.4 -4.9,-2.2 -6.7,-4 -2.7,-2.6 -3.3,-4 -3,-6.5 0.2,-1.8 -0.1,-3.3 -0.7,-3.3 -0.6,0 -0.8,-1.6 -0.4,-4 0.3,-2.2 0.5,-4 0.3,-4 -0.1,0 -0.5,0.7 -0.8,1.5 z"
           style="stroke-width:25;stroke-dasharray:none" /><path
           id="Path 16"
           class="s4"
           d="m 292.1,263.2 c -2.5,1.3 -5.3,3.4 -6.3,4.8 -1.3,1.8 -1.9,4.5 -2.1,9.3 -0.1,3.7 0.1,6.7 0.5,6.7 0.5,0 0.6,0.6 0.4,1.3 -0.3,0.6 0.6,2.4 2,4 1.3,1.5 3.9,3.5 5.6,4.5 3.1,1.6 10.8,1.7 129.3,1.3 120.8,-0.3 126.2,-0.4 129.7,-2.2 2.1,-1.1 4.7,-3.4 5.7,-5.1 1.1,-1.8 1.8,-3.9 1.5,-4.5 -0.2,-0.7 -0.1,-1.3 0.3,-1.3 0.5,0 0.8,-1.8 0.8,-3.9 0,-2.3 -0.4,-3.6 -1,-3.3 -0.5,0.4 -0.6,-0.2 -0.2,-1.5 0.4,-1.4 0.3,-2.3 -0.3,-2.3 -0.5,0 -0.8,-0.4 -0.5,-1 0.3,-0.6 0,-1 -0.5,-1 -0.5,0 -1.1,-0.8 -1.3,-1.7 -0.2,-1 -2.3,-2.8 -4.8,-4 l -4.4,-2.3 h -250 z m 0.1,75.1 c -1.8,0.7 -4.1,2.5 -5.2,3.9 -1.1,1.5 -1.6,3 -1.2,3.3 0.4,0.3 0.2,0.5 -0.5,0.5 -0.8,0 -1,0.6 -0.5,1.7 0.4,1.1 0.3,1.5 -0.3,1.1 -0.6,-0.4 -0.9,0.7 -0.7,2.7 0.1,1.9 0.6,3.4 1,3.4 0.4,0 0.6,2.1 0.5,4.5 -0.1,2.5 0.1,4.4 0.5,4.3 0.4,-0.1 1.7,0.7 2.9,1.8 1.3,1 2.1,2.2 1.9,2.4 -0.2,0.3 1.3,0.7 3.3,0.8 2,0.1 4.1,0.7 4.6,1.2 0.7,0.6 36.6,1 98.8,1 64.5,0 97.7,-0.3 97.7,-1 0,-0.5 1.1,-1.3 2.3,-1.7 1.2,-0.3 2.5,-0.7 2.9,-0.7 0.4,0 1,-0.4 1.5,-0.9 0.5,-0.5 1,-1.2 1.1,-1.7 0.1,-0.5 0.2,-1.4 0.2,-2 0,-0.5 0.5,-0.7 1,-0.5 0.6,0.3 0.8,-0.2 0.3,-1.2 -0.4,-1.1 -0.3,-1.5 0.3,-1.1 0.6,0.4 0.9,-1.3 0.8,-4.5 -0.1,-3 -1,-6.8 -2.2,-9.2 -1.2,-2.2 -1.8,-4.4 -1.4,-4.9 0.4,-0.5 0.2,-0.6 -0.5,-0.2 -0.7,0.3 -2.6,-0.1 -4.3,-1.1 -1.6,-1 -2.7,-2.1 -2.3,-2.5 0.3,-0.4 -44.4,-0.7 -99.3,-0.7 -78.3,0 -100.6,0.3 -103.2,1.3 z"
           style="fill:#1d1d1d;fill-opacity:1;stroke-width:25;stroke-dasharray:none" /></g></g></g></svg>
