<svg class="h-6" xmlns="http://www.w3.org/2000/svg" viewBox="0 0 24 24">
          <g fill="none" stroke="currentColor" stroke-linecap="round" stroke-linejoin="round" stroke-width="1.5" color="currentColor">
            <!-- First path -->
            <path d="M10.55 3c-3.852.007-5.87.102-7.159 1.39C2 5.783 2 8.022 2 12.5s0 6.717 1.391 8.109C4.783 22 7.021 22 11.501 22c4.478 0 6.717 0 8.108-1.391c1.29-1.29 1.384-3.307 1.391-7.16" stroke-dasharray="60" stroke-dashoffset="60">
              <animate attributeName="stroke-dashoffset" dur="0.2s" values="60;0" fill="freeze"></animate>
            </path>
            
            <!-- Second path -->
            <path d="M11.056 13C10.332 3.866 16.802 1.276 21.98 2.164c.209 3.027-1.273 4.16-4.093 4.684c.545.57 1.507 1.286 1.403 2.18c-.074.638-.506.95-1.372 1.576c-1.896 1.37-4.093 2.234-6.863 2.396" stroke-dasharray="50" stroke-dashoffset="50">
              <animate attributeName="stroke-dashoffset" dur="0.2s" values="50;0" fill="freeze" begin="0.2s"></animate>
            </path>
            
            <!-- Third path -->
            <path d="M9 17c2-5.5 3.96-7.364 6-9" stroke-dasharray="15" stroke-dashoffset="15">
              <animate attributeName="stroke-dashoffset" dur="0.5s" values="15;0" fill="freeze" begin="0.5s"></animate>
            </path>
          </g>
        </svg>